<?xml version="1.0" encoding="UTF-8" standalone="no"?>
<!DOCTYPE svg PUBLIC "-//W3C//DTD SVG 1.1//EN"
 "http://www.w3.org/Graphics/SVG/1.1/DTD/svg11.dtd">
<!-- Generated by graphviz version 2.47.0 (20210316.0004)
 -->
<!-- Title: dependencies Pages: 1 -->
<svg width="504pt" height="284pt"
 viewBox="0.00 0.00 504.00 284.00" xmlns="http://www.w3.org/2000/svg" xmlns:xlink="http://www.w3.org/1999/xlink">
<g id="graph0" class="graph" transform="scale(1 1) rotate(0) translate(4 280)">
<title>dependencies</title>
<polygon fill="white" stroke="transparent" points="-4,4 -4,-280 500,-280 500,4 -4,4"/>
<text text-anchor="start" x="227.01" y="-42.4" font-family="Times-12" font-weight="bold" font-size="14.00">Legend</text>
<polygon fill="#ffffb3" stroke="transparent" points="14,-10 14,-30 34,-30 34,-10 14,-10"/>
<text text-anchor="start" x="37.63" y="-15.4" font-family="Times-12" font-size="14.00"> &#160;Declarations</text>
<polygon fill="#8dd3c7" stroke="transparent" points="127,-10 127,-30 147,-30 147,-10 127,-10"/>
<text text-anchor="start" x="150.73" y="-15.4" font-family="Times-12" font-size="14.00"> &#160;Module</text>
<polygon fill="#80b1d3" stroke="transparent" points="213,-10 213,-30 233,-30 233,-10 213,-10"/>
<text text-anchor="start" x="236.78" y="-15.4" font-family="Times-12" font-size="14.00"> &#160;Bootstrap</text>
<polygon fill="#fdb462" stroke="transparent" points="310,-10 310,-30 330,-30 330,-10 310,-10"/>
<text text-anchor="start" x="333.67" y="-15.4" font-family="Times-12" font-size="14.00"> &#160;Providers</text>
<polygon fill="#fb8072" stroke="transparent" points="406,-10 406,-30 426,-30 426,-10 406,-10"/>
<text text-anchor="start" x="429.73" y="-15.4" font-family="Times-12" font-size="14.00"> &#160;Exports</text>
<g id="clust1" class="cluster">
<title>cluster_UiModule</title>
<polygon fill="none" stroke="black" stroke-dasharray="1,5" points="62.5,-70 62.5,-268 433.5,-268 433.5,-70 62.5,-70"/>
</g>
<g id="clust2" class="cluster">
<title>cluster_UiModule_declarations</title>
<polygon fill="none" stroke="black" points="70.5,-78 70.5,-130 425.5,-130 425.5,-78 70.5,-78"/>
</g>
<g id="clust6" class="cluster">
<title>cluster_UiModule_exports</title>
<polygon fill="none" stroke="black" points="178.5,-208 178.5,-260 336.5,-260 336.5,-208 178.5,-208"/>
</g>
<!-- CardBookComponent -->
<g id="node1" class="node">
<title>CardBookComponent</title>
<polygon fill="#ffffb3" stroke="black" points="417.88,-122 279.12,-122 279.12,-86 417.88,-86 417.88,-122"/>
<text text-anchor="middle" x="348.5" y="-99.8" font-family="Times,serif" font-size="14.00">CardBookComponent</text>
</g>
<!-- UiModule -->
<g id="node3" class="node">
<title>UiModule</title>
<polygon fill="#8dd3c7" stroke="black" points="294.05,-187 291.05,-191 270.05,-191 267.05,-187 220.95,-187 220.95,-151 294.05,-151 294.05,-187"/>
<text text-anchor="middle" x="257.5" y="-164.8" font-family="Times,serif" font-size="14.00">UiModule</text>
</g>
<!-- CardBookComponent&#45;&gt;UiModule -->
<g id="edge1" class="edge">
<title>CardBookComponent&#45;&gt;UiModule</title>
<path fill="none" stroke="black" d="M286.67,-122.11C286.67,-122.11 286.67,-140.99 286.67,-140.99"/>
<polygon fill="black" stroke="black" points="283.17,-140.99 286.67,-150.99 290.17,-140.99 283.17,-140.99"/>
</g>
<!-- ModalDetailBookComponent -->
<g id="node2" class="node">
<title>ModalDetailBookComponent</title>
<polygon fill="#ffffb3" stroke="black" points="260.93,-122 78.07,-122 78.07,-86 260.93,-86 260.93,-122"/>
<text text-anchor="middle" x="169.5" y="-99.8" font-family="Times,serif" font-size="14.00">ModalDetailBookComponent</text>
</g>
<!-- ModalDetailBookComponent&#45;&gt;UiModule -->
<g id="edge2" class="edge">
<title>ModalDetailBookComponent&#45;&gt;UiModule</title>
<path fill="none" stroke="black" d="M240.72,-122.11C240.72,-122.11 240.72,-140.99 240.72,-140.99"/>
<polygon fill="black" stroke="black" points="237.22,-140.99 240.72,-150.99 244.22,-140.99 237.22,-140.99"/>
</g>
<!-- CardBookComponent  -->
<g id="node4" class="node">
<title>CardBookComponent </title>
<polygon fill="#fb8072" stroke="black" points="328.88,-252 186.12,-252 186.12,-216 328.88,-216 328.88,-252"/>
<text text-anchor="middle" x="257.5" y="-229.8" font-family="Times,serif" font-size="14.00">CardBookComponent </text>
</g>
<!-- UiModule&#45;&gt;CardBookComponent  -->
<g id="edge3" class="edge">
<title>UiModule&#45;&gt;CardBookComponent </title>
<path fill="none" stroke="black" stroke-dasharray="5,2" d="M257.5,-187.11C257.5,-187.11 257.5,-205.99 257.5,-205.99"/>
<polygon fill="black" stroke="black" points="254,-205.99 257.5,-215.99 261,-205.99 254,-205.99"/>
</g>
</g>
</svg>
