<?xml version="1.0" encoding="UTF-8" standalone="no"?>
<!DOCTYPE svg PUBLIC "-//W3C//DTD SVG 1.1//EN"
 "http://www.w3.org/Graphics/SVG/1.1/DTD/svg11.dtd">
<!-- Generated by graphviz version 2.47.0 (20210316.0004)
 -->
<!-- Title: dependencies Pages: 1 -->
<svg width="584pt" height="360pt"
 viewBox="0.00 0.00 584.00 360.00" xmlns="http://www.w3.org/2000/svg" xmlns:xlink="http://www.w3.org/1999/xlink">
<g id="graph0" class="graph" transform="scale(1 1) rotate(0) translate(4 356)">
<title>dependencies</title>
<polygon fill="white" stroke="transparent" points="-4,4 -4,-356 580,-356 580,4 -4,4"/>
<text text-anchor="start" x="267.01" y="-42.4" font-family="Times-12" font-weight="bold" font-size="14.00">Legend</text>
<polygon fill="#ffffb3" stroke="transparent" points="54,-10 54,-30 74,-30 74,-10 54,-10"/>
<text text-anchor="start" x="77.63" y="-15.4" font-family="Times-12" font-size="14.00"> &#160;Declarations</text>
<polygon fill="#8dd3c7" stroke="transparent" points="167,-10 167,-30 187,-30 187,-10 167,-10"/>
<text text-anchor="start" x="190.73" y="-15.4" font-family="Times-12" font-size="14.00"> &#160;Module</text>
<polygon fill="#80b1d3" stroke="transparent" points="253,-10 253,-30 273,-30 273,-10 253,-10"/>
<text text-anchor="start" x="276.78" y="-15.4" font-family="Times-12" font-size="14.00"> &#160;Bootstrap</text>
<polygon fill="#fdb462" stroke="transparent" points="350,-10 350,-30 370,-30 370,-10 350,-10"/>
<text text-anchor="start" x="373.67" y="-15.4" font-family="Times-12" font-size="14.00"> &#160;Providers</text>
<polygon fill="#fb8072" stroke="transparent" points="446,-10 446,-30 466,-30 466,-10 446,-10"/>
<text text-anchor="start" x="469.73" y="-15.4" font-family="Times-12" font-size="14.00"> &#160;Exports</text>
<g id="clust1" class="cluster">
<title>cluster_AppModule</title>
<polygon fill="none" stroke="black" stroke-dasharray="1,5" points="228,-146 228,-344 568,-344 568,-146 228,-146"/>
</g>
<g id="clust2" class="cluster">
<title>cluster_AppModule_declarations</title>
<polygon fill="none" stroke="black" points="438,-154 438,-206 560,-206 560,-154 438,-154"/>
</g>
<g id="clust4" class="cluster">
<title>cluster_AppModule_imports</title>
<polygon fill="none" stroke="black" points="236,-154 236,-206 430,-206 430,-154 236,-154"/>
</g>
<g id="clust6" class="cluster">
<title>cluster_AppModule_bootstrap</title>
<polygon fill="none" stroke="black" points="317,-284 317,-336 441,-336 441,-284 317,-284"/>
</g>
<g id="clust14" class="cluster">
<title>cluster_UiModule</title>
<polygon fill="none" stroke="black" stroke-dasharray="1,5" points="8,-70 8,-138 545,-138 545,-70 8,-70"/>
</g>
<g id="clust15" class="cluster">
<title>cluster_UiModule_declarations</title>
<polygon fill="none" stroke="black" points="182,-78 182,-130 537,-130 537,-78 182,-78"/>
</g>
<g id="clust19" class="cluster">
<title>cluster_UiModule_exports</title>
<polygon fill="none" stroke="black" points="16,-78 16,-130 174,-130 174,-78 16,-78"/>
</g>
<!-- AppComponent -->
<g id="node1" class="node">
<title>AppComponent</title>
<polygon fill="#ffffb3" stroke="black" points="551.94,-198 446.06,-198 446.06,-162 551.94,-162 551.94,-198"/>
<text text-anchor="middle" x="499" y="-175.8" font-family="Times,serif" font-size="14.00">AppComponent</text>
</g>
<!-- AppModule -->
<g id="node2" class="node">
<title>AppModule</title>
<polygon fill="#8dd3c7" stroke="black" points="420.66,-263 417.66,-267 396.66,-267 393.66,-263 337.34,-263 337.34,-227 420.66,-227 420.66,-263"/>
<text text-anchor="middle" x="379" y="-240.8" font-family="Times,serif" font-size="14.00">AppModule</text>
</g>
<!-- AppComponent&#45;&gt;AppModule -->
<g id="edge1" class="edge">
<title>AppComponent&#45;&gt;AppModule</title>
<path fill="none" stroke="black" d="M499,-198.11C499,-217.34 499,-245 499,-245 499,-245 430.97,-245 430.97,-245"/>
<polygon fill="black" stroke="black" points="430.97,-241.5 420.97,-245 430.97,-248.5 430.97,-241.5"/>
</g>
<!-- AppComponent  -->
<g id="node5" class="node">
<title>AppComponent </title>
<polygon fill="#80b1d3" stroke="black" points="433.44,-328 324.56,-328 324.56,-292 433.44,-292 433.44,-328"/>
<text text-anchor="middle" x="379" y="-305.8" font-family="Times,serif" font-size="14.00">AppComponent </text>
</g>
<!-- AppModule&#45;&gt;AppComponent  -->
<g id="edge4" class="edge">
<title>AppModule&#45;&gt;AppComponent </title>
<path fill="none" stroke="black" stroke-dasharray="1,5" d="M379,-263.11C379,-263.11 379,-281.99 379,-281.99"/>
<polygon fill="black" stroke="black" points="375.5,-281.99 379,-291.99 382.5,-281.99 375.5,-281.99"/>
</g>
<!-- DataModule -->
<g id="node3" class="node">
<title>DataModule</title>
<polygon fill="#8dd3c7" stroke="black" points="421.98,-198 418.98,-202 397.98,-202 394.98,-198 336.02,-198 336.02,-162 421.98,-162 421.98,-198"/>
<text text-anchor="middle" x="379" y="-175.8" font-family="Times,serif" font-size="14.00">DataModule</text>
</g>
<!-- DataModule&#45;&gt;AppModule -->
<g id="edge2" class="edge">
<title>DataModule&#45;&gt;AppModule</title>
<path fill="none" stroke="black" d="M379,-198.11C379,-198.11 379,-216.99 379,-216.99"/>
<polygon fill="black" stroke="black" points="375.5,-216.99 379,-226.99 382.5,-216.99 375.5,-216.99"/>
</g>
<!-- UiModule -->
<g id="node4" class="node">
<title>UiModule</title>
<polygon fill="#8dd3c7" stroke="black" points="317.55,-198 314.55,-202 293.55,-202 290.55,-198 244.45,-198 244.45,-162 317.55,-162 317.55,-198"/>
<text text-anchor="middle" x="281" y="-175.8" font-family="Times,serif" font-size="14.00">UiModule</text>
</g>
<!-- UiModule&#45;&gt;AppModule -->
<g id="edge3" class="edge">
<title>UiModule&#45;&gt;AppModule</title>
<path fill="none" stroke="black" d="M281,-198.11C281,-217.34 281,-245 281,-245 281,-245 327.15,-245 327.15,-245"/>
<polygon fill="black" stroke="black" points="327.15,-248.5 337.15,-245 327.15,-241.5 327.15,-248.5"/>
</g>
<!-- CardBookComponent  -->
<g id="node8" class="node">
<title>CardBookComponent </title>
<polygon fill="#fb8072" stroke="black" points="166.38,-122 23.62,-122 23.62,-86 166.38,-86 166.38,-122"/>
<text text-anchor="middle" x="95" y="-99.8" font-family="Times,serif" font-size="14.00">CardBookComponent </text>
</g>
<!-- UiModule&#45;&gt;CardBookComponent  -->
<g id="edge7" class="edge">
<title>UiModule&#45;&gt;CardBookComponent </title>
<path fill="none" stroke="black" stroke-dasharray="5,2" d="M244.25,-180C190.05,-180 95,-180 95,-180 95,-180 95,-132.01 95,-132.01"/>
<polygon fill="black" stroke="black" points="98.5,-132.01 95,-122.01 91.5,-132.01 98.5,-132.01"/>
</g>
<!-- CardBookComponent -->
<g id="node6" class="node">
<title>CardBookComponent</title>
<polygon fill="#ffffb3" stroke="black" points="529.38,-122 390.62,-122 390.62,-86 529.38,-86 529.38,-122"/>
<text text-anchor="middle" x="460" y="-99.8" font-family="Times,serif" font-size="14.00">CardBookComponent</text>
</g>
<!-- CardBookComponent&#45;&gt;UiModule -->
<g id="edge5" class="edge">
<title>CardBookComponent&#45;&gt;UiModule</title>
<path fill="none" stroke="black" d="M406.27,-122.11C406.27,-131.9 406.27,-142 406.27,-142 406.27,-142 293.26,-142 293.26,-142 293.26,-142 293.26,-151.89 293.26,-151.89"/>
<polygon fill="black" stroke="black" points="289.76,-151.89 293.26,-161.89 296.76,-151.89 289.76,-151.89"/>
</g>
<!-- ModalDetailBookComponent -->
<g id="node7" class="node">
<title>ModalDetailBookComponent</title>
<polygon fill="#ffffb3" stroke="black" points="372.43,-122 189.57,-122 189.57,-86 372.43,-86 372.43,-122"/>
<text text-anchor="middle" x="281" y="-99.8" font-family="Times,serif" font-size="14.00">ModalDetailBookComponent</text>
</g>
<!-- ModalDetailBookComponent&#45;&gt;UiModule -->
<g id="edge6" class="edge">
<title>ModalDetailBookComponent&#45;&gt;UiModule</title>
<path fill="none" stroke="black" d="M268.74,-122.01C268.74,-122.01 268.74,-151.85 268.74,-151.85"/>
<polygon fill="black" stroke="black" points="265.24,-151.85 268.74,-161.85 272.24,-151.85 265.24,-151.85"/>
</g>
</g>
</svg>
